<svg xmlns="http://www.w3.org/2000/svg" viewBox="0 0 175.216 175.552">
  <defs>
    <linearGradient id="wa-grad" x1="85.915" y1="32.567" x2="86.535" y2="137.092" gradientUnits="userSpaceOnUse">
      <stop offset="0" stop-color="#57d163"/>
      <stop offset="1" stop-color="#23b33a"/>
    </linearGradient>
  </defs>
  <path d="M87.184 14.2A73.68 73.68 0 0014.4 87.985a73.34 73.34 0 009.882 36.79L14.2 161.35l37.6-9.86a73.68 73.68 0 0035.282 8.988h.032c40.656 0 73.712-33.04 73.728-73.68a73.24 73.24 0 00-21.584-52.096A73.24 73.24 0 0087.184 14.2" fill="#e5e5e5"/>
  <path d="M87.184 25.227c-34.56 0-62.688 28.112-62.704 62.672a62.48 62.48 0 009.344 32.896l-9.936 36.272 37.152-9.744a62.56 62.56 0 0030.016 7.648h.032c34.544 0 62.672-28.128 62.688-62.672a62.32 62.32 0 00-18.368-44.4 62.32 62.32 0 00-48.224-22.672" fill="url(#wa-grad)"/>
  <path d="M68.772 55.603c-1.376-3.056-2.832-3.12-4.128-3.168-1.072-.048-2.288-.048-3.52-.048a6.76 6.76 0 00-4.896 2.288c-1.68 1.84-6.416 6.272-6.416 15.296s6.576 17.728 7.488 18.96c.928 1.216 12.672 20.256 31.328 27.6 15.504 6.096 18.672 4.88 22.032 4.576 3.36-.304 10.832-4.432 12.368-8.704 1.52-4.288 1.52-7.952 1.072-8.72-.464-.768-1.68-1.216-3.52-2.144-1.84-.928-10.832-5.344-12.512-5.952-1.68-.624-2.896-.928-4.128.928-1.216 1.84-4.736 5.952-5.808 7.184-1.072 1.216-2.144.64-3.968-.32s-7.728-2.848-14.72-9.088c-5.44-4.848-9.104-10.848-10.176-12.672-1.072-1.84-.112-2.832.8-3.744.832-.816 1.84-2.144 2.768-3.216.912-1.056 1.216-1.84 1.84-3.056.608-1.232.304-2.288-.16-3.216-.464-.928-4.032-9.888-5.728-13.488" fill="#fff"/>
</svg>
